<svg width="164" height="162" viewBox="0 0 164 162" fill="none" xmlns="http://www.w3.org/2000/svg">
<g clip-path="url(#clip0)">
<circle cx="82" cy="83" r="81" fill="white"/>
<path fill-rule="evenodd" clip-rule="evenodd" d="M82 0C36.6951 0 0 37.1643 0 83.0488C0 119.798 23.4725 150.837 56.0675 161.841C60.1675 162.568 61.7049 160.077 61.7049 157.897C61.7049 155.924 61.6025 149.383 61.6025 142.429C41 146.27 35.67 137.342 34.03 132.67C33.1075 130.283 29.11 122.912 25.6251 120.94C22.7549 119.383 18.6551 115.542 25.5225 115.438C31.98 115.334 36.5925 121.459 38.13 123.95C45.51 136.511 57.2975 132.982 62.0125 130.802C62.73 125.404 64.8825 121.77 67.24 119.694C48.9951 117.618 29.93 110.455 29.93 78.6888C29.93 69.6572 33.1075 62.1827 38.3351 56.3693C37.5151 54.2932 34.6449 45.7806 39.1549 34.3614C39.1549 34.3614 46.0225 32.1814 61.7049 42.874C68.2651 41.0053 75.2351 40.0711 82.2051 40.0711C89.1751 40.0711 96.1451 41.0053 102.705 42.874C118.387 32.0776 125.255 34.3614 125.255 34.3614C129.765 45.7806 126.895 54.2932 126.075 56.3693C131.303 62.1827 134.48 69.5534 134.48 78.6888C134.48 110.559 115.313 117.618 97.0675 119.694C100.04 122.289 102.603 127.272 102.603 135.058C102.603 146.166 102.5 155.093 102.5 157.897C102.5 160.077 104.037 162.672 108.137 161.841C140.527 150.837 164 119.694 164 83.0488C164 37.1643 127.305 0 82 0Z" fill="#207245"/>
</g>
<path d="M83.6562 48H88.5146C88.5146 50.1733 88.5146 52.3384 88.5146 54.5116C96.7018 54.5116 104.889 54.5279 113.076 54.4872C114.458 54.5442 115.98 54.4465 117.182 55.2686C118.024 56.4733 117.926 58.0035 117.984 59.3872C117.943 73.5174 117.959 87.6395 117.967 101.762C117.926 104.13 118.188 106.548 117.689 108.884C117.362 110.577 115.317 110.617 113.951 110.674C105.478 110.699 96.9962 110.658 88.5146 110.674C88.5146 113.116 88.5146 115.558 88.5146 118H83.4354C70.9706 115.745 58.4812 113.662 46 111.488C46 92.4988 46 73.5093 46 54.5198C58.5548 52.3465 71.1096 50.2058 83.6562 48Z" fill="#207245"/>
<path d="M88.5146 56.9535C97.5115 56.9535 106.508 56.9535 115.505 56.9535C115.505 74.0465 115.505 91.1395 115.505 108.233C106.508 108.233 97.5115 108.233 88.5146 108.233C88.5146 106.605 88.5146 104.977 88.5146 103.349C90.6984 103.349 92.874 103.349 95.0578 103.349C95.0578 101.452 95.0578 99.5477 95.0578 97.6512C92.874 97.6512 90.6984 97.6512 88.5146 97.6512C88.5146 96.5686 88.5146 95.4779 88.5146 94.3954C90.6984 94.3954 92.874 94.3954 95.0578 94.3954C95.0578 92.4988 95.0578 90.5942 95.0578 88.6977C92.874 88.6977 90.6984 88.6977 88.5146 88.6977C88.5146 87.6151 88.5146 86.5244 88.5146 85.4419C90.6984 85.4419 92.874 85.4419 95.0578 85.4419C95.0578 83.5454 95.0578 81.6407 95.0578 79.7442C92.874 79.7442 90.6984 79.7442 88.5146 79.7442C88.5146 78.6616 88.5146 77.5709 88.5146 76.4884C90.6984 76.4884 92.874 76.4884 95.0578 76.4884C95.0578 74.5919 95.0578 72.6872 95.0578 70.7907C92.874 70.7907 90.6984 70.7907 88.5146 70.7907C88.5146 69.7081 88.5146 68.6174 88.5146 67.5349C90.6984 67.5349 92.874 67.5349 95.0578 67.5349C95.0578 65.6384 95.0578 63.7337 95.0578 61.8372C92.874 61.8372 90.6984 61.8372 88.5146 61.8372C88.5146 60.2093 88.5146 58.5814 88.5146 56.9535V56.9535Z" fill="white"/>
<path d="M98.3294 61.8372C102.149 61.8372 105.96 61.8372 109.78 61.8372C109.78 63.7337 109.78 65.6384 109.78 67.5349C105.96 67.5349 102.149 67.5349 98.3294 67.5349C98.3294 65.6384 98.3294 63.7337 98.3294 61.8372V61.8372Z" fill="#207245"/>
<path d="M70.2263 69.4639C72.0747 69.3337 73.9314 69.2198 75.788 69.1302C73.6042 73.5825 71.4122 78.0349 69.1876 82.4709C71.4368 87.0291 73.7351 91.5546 75.9925 96.1128C74.0214 95.9988 72.0584 95.8767 70.0872 95.7384C68.6968 92.3442 67.0038 89.0639 66.0059 85.5151C64.8936 88.8198 63.3068 91.9372 62.0309 95.1767C60.2397 95.1523 58.4485 95.0791 56.6573 95.0058C58.7593 90.9116 60.7877 86.7849 62.9551 82.7151C61.1149 78.5232 59.0946 74.4128 57.1971 70.2453C58.9965 70.1395 60.7959 70.0337 62.5953 69.936C63.8139 73.1186 65.1471 76.2605 66.1531 79.5244C67.2328 76.0651 68.844 72.8093 70.2263 69.4639V69.4639Z" fill="white"/>
<path d="M98.3294 70.7907C102.149 70.7907 105.96 70.7907 109.78 70.7907C109.78 72.6872 109.78 74.5919 109.78 76.4884C105.96 76.4884 102.149 76.4884 98.3294 76.4884C98.3294 74.5919 98.3294 72.6872 98.3294 70.7907V70.7907Z" fill="#207245"/>
<path d="M98.3294 79.7442C102.149 79.7442 105.96 79.7442 109.78 79.7442C109.78 81.6407 109.78 83.5453 109.78 85.4419C105.96 85.4419 102.149 85.4419 98.3294 85.4419C98.3294 83.5453 98.3294 81.6407 98.3294 79.7442V79.7442Z" fill="#207245"/>
<path d="M98.3294 88.6977C102.149 88.6977 105.96 88.6977 109.78 88.6977C109.78 90.5942 109.78 92.4988 109.78 94.3954C105.96 94.3954 102.149 94.3954 98.3294 94.3954C98.3294 92.4988 98.3294 90.5942 98.3294 88.6977V88.6977Z" fill="#207245"/>
<path d="M98.3294 97.6512C102.149 97.6512 105.96 97.6512 109.78 97.6512C109.78 99.5477 109.78 101.452 109.78 103.349C105.96 103.349 102.149 103.349 98.3294 103.349C98.3294 101.452 98.3294 99.5477 98.3294 97.6512V97.6512Z" fill="#207245"/>
<defs>
<clipPath id="clip0">
<rect width="164" height="162" fill="white"/>
</clipPath>
</defs>
</svg>
