<svg width="602" height="453" viewBox="0 0 602 453" fill="none" xmlns="http://www.w3.org/2000/svg">
<path d="M22 0.5H503.671L597.768 218.459C600.121 223.909 600.116 230.088 597.754 235.534L503.672 452.5H22C10.1259 452.5 0.5 442.874 0.5 431V22C0.5 10.1259 10.1259 0.5 22 0.5Z" fill="#0013BE" stroke="black"/>
<g clip-path="url(#clip0)">
<circle cx="106" cy="217" r="81" fill="white"/>
<path fill-rule="evenodd" clip-rule="evenodd" d="M106 134C60.6951 134 24 171.164 24 217.049C24 253.798 47.4725 284.837 80.0675 295.841C84.1675 296.568 85.7049 294.077 85.7049 291.897C85.7049 289.924 85.6025 283.383 85.6025 276.429C65 280.27 59.67 271.342 58.03 266.67C57.1075 264.283 53.11 256.912 49.6251 254.94C46.7549 253.383 42.6551 249.542 49.5225 249.438C55.98 249.334 60.5925 255.459 62.13 257.95C69.51 270.511 81.2975 266.982 86.0125 264.802C86.73 259.404 88.8825 255.77 91.24 253.694C72.9951 251.618 53.93 244.455 53.93 212.689C53.93 203.657 57.1075 196.183 62.3351 190.369C61.5151 188.293 58.6449 179.781 63.1549 168.361C63.1549 168.361 70.0225 166.181 85.7049 176.874C92.2651 175.005 99.2351 174.071 106.205 174.071C113.175 174.071 120.145 175.005 126.705 176.874C142.387 166.078 149.255 168.361 149.255 168.361C153.765 179.781 150.895 188.293 150.075 190.369C155.303 196.183 158.48 203.553 158.48 212.689C158.48 244.559 139.313 251.618 121.067 253.694C124.04 256.289 126.603 261.272 126.603 269.058C126.603 280.166 126.5 289.093 126.5 291.897C126.5 294.077 128.037 296.672 132.137 295.841C164.527 284.837 188 253.694 188 217.049C188 171.164 151.305 134 106 134Z" fill="#1B1F23"/>
</g>
<path d="M416.789 145H426.439C426.439 149.347 426.439 153.677 426.439 158.023C442.699 158.023 458.96 158.056 475.221 157.974C477.966 158.088 480.988 157.893 483.375 159.537C485.049 161.947 484.854 165.007 484.967 167.774C484.886 196.035 484.919 224.279 484.935 252.523C484.854 257.26 485.374 262.095 484.383 266.767C483.733 270.153 479.672 270.235 476.959 270.349C460.13 270.398 443.284 270.316 426.439 270.349C426.439 275.233 426.439 280.116 426.439 285H416.351C391.594 280.491 366.789 276.323 342 271.977C342 233.998 342 196.019 342 158.04C366.935 153.693 391.87 149.412 416.789 145Z" fill="#207245"/>
<path d="M426.439 162.907C444.308 162.907 462.176 162.907 480.045 162.907C480.045 197.093 480.045 231.279 480.045 265.465C462.176 265.465 444.308 265.465 426.439 265.465C426.439 262.209 426.439 258.953 426.439 255.698C430.776 255.698 435.097 255.698 439.434 255.698C439.434 251.905 439.434 248.095 439.434 244.302C435.097 244.302 430.776 244.302 426.439 244.302C426.439 242.137 426.439 239.956 426.439 237.791C430.776 237.791 435.097 237.791 439.434 237.791C439.434 233.998 439.434 230.188 439.434 226.395C435.097 226.395 430.776 226.395 426.439 226.395C426.439 224.23 426.439 222.049 426.439 219.884C430.776 219.884 435.097 219.884 439.434 219.884C439.434 216.091 439.434 212.281 439.434 208.488C435.097 208.488 430.776 208.488 426.439 208.488C426.439 206.323 426.439 204.142 426.439 201.977C430.776 201.977 435.097 201.977 439.434 201.977C439.434 198.184 439.434 194.374 439.434 190.581C435.097 190.581 430.776 190.581 426.439 190.581C426.439 188.416 426.439 186.235 426.439 184.07C430.776 184.07 435.097 184.07 439.434 184.07C439.434 180.277 439.434 176.467 439.434 172.674C435.097 172.674 430.776 172.674 426.439 172.674C426.439 169.419 426.439 166.163 426.439 162.907V162.907Z" fill="white"/>
<path d="M445.932 172.674C453.518 172.674 461.088 172.674 468.674 172.674C468.674 176.467 468.674 180.277 468.674 184.07C461.088 184.07 453.518 184.07 445.932 184.07C445.932 180.277 445.932 176.467 445.932 172.674V172.674Z" fill="#207245"/>
<path d="M390.116 187.928C393.787 187.667 397.475 187.44 401.162 187.26C396.825 196.165 392.472 205.07 388.053 213.942C392.52 223.058 397.085 232.109 401.568 241.226C397.653 240.998 393.755 240.753 389.84 240.477C387.078 233.688 383.716 227.128 381.734 220.03C379.525 226.64 376.373 232.874 373.839 239.353C370.282 239.305 366.724 239.158 363.167 239.012C367.341 230.823 371.37 222.57 375.675 214.43C372.02 206.047 368.007 197.826 364.239 189.491C367.812 189.279 371.386 189.067 374.96 188.872C377.38 195.237 380.028 201.521 382.026 208.049C384.171 201.13 387.371 194.619 390.116 187.928V187.928Z" fill="white"/>
<path d="M445.932 190.581C453.518 190.581 461.088 190.581 468.674 190.581C468.674 194.374 468.674 198.184 468.674 201.977C461.088 201.977 453.518 201.977 445.932 201.977C445.932 198.184 445.932 194.374 445.932 190.581V190.581Z" fill="#207245"/>
<path d="M445.932 208.488C453.518 208.488 461.088 208.488 468.674 208.488C468.674 212.281 468.674 216.091 468.674 219.884C461.088 219.884 453.518 219.884 445.932 219.884C445.932 216.091 445.932 212.281 445.932 208.488V208.488Z" fill="#207245"/>
<path d="M445.932 226.395C453.518 226.395 461.088 226.395 468.674 226.395C468.674 230.188 468.674 233.998 468.674 237.791C461.088 237.791 453.518 237.791 445.932 237.791C445.932 233.998 445.932 230.188 445.932 226.395V226.395Z" fill="#207245"/>
<path d="M445.932 244.302C453.518 244.302 461.088 244.302 468.674 244.302C468.674 248.095 468.674 251.905 468.674 255.698C461.088 255.698 453.518 255.698 445.932 255.698C445.932 251.905 445.932 248.095 445.932 244.302V244.302Z" fill="#207245"/>
<g filter="url(#filter0_d)">
<path d="M205.001 241.004L270.581 241.002L246.677 215.002L300.612 215" stroke="white" stroke-width="6" stroke-linejoin="round"/>
</g>
<path d="M312.085 214.5L295.449 227.058L295.448 201.943L312.085 214.5Z" fill="white"/>
<defs>
<filter id="filter0_d" x="201" y="212" width="103.612" height="40.0034" filterUnits="userSpaceOnUse" color-interpolation-filters="sRGB">
<feFlood flood-opacity="0" result="BackgroundImageFix"/>
<feColorMatrix in="SourceAlpha" type="matrix" values="0 0 0 0 0 0 0 0 0 0 0 0 0 0 0 0 0 0 127 0"/>
<feOffset dy="4"/>
<feGaussianBlur stdDeviation="2"/>
<feColorMatrix type="matrix" values="0 0 0 0 0 0 0 0 0 0 0 0 0 0 0 0 0 0 0.25 0"/>
<feBlend mode="normal" in2="BackgroundImageFix" result="effect1_dropShadow"/>
<feBlend mode="normal" in="SourceGraphic" in2="effect1_dropShadow" result="shape"/>
</filter>
<clipPath id="clip0">
<rect x="24" y="134" width="164" height="162" fill="white"/>
</clipPath>
</defs>
</svg>
