<svg width="461" height="162" viewBox="0 0 461 162" fill="none" xmlns="http://www.w3.org/2000/svg">
<g clip-path="url(#clip0)">
<circle cx="82" cy="83" r="81" fill="white"/>
<path fill-rule="evenodd" clip-rule="evenodd" d="M82 0C36.6951 0 0 37.1643 0 83.0488C0 119.798 23.4725 150.837 56.0675 161.841C60.1675 162.568 61.7049 160.077 61.7049 157.897C61.7049 155.924 61.6025 149.383 61.6025 142.429C41 146.27 35.67 137.342 34.03 132.67C33.1075 130.283 29.11 122.912 25.6251 120.94C22.7549 119.383 18.6551 115.542 25.5225 115.438C31.98 115.334 36.5925 121.459 38.13 123.95C45.51 136.511 57.2975 132.982 62.0125 130.802C62.73 125.404 64.8825 121.77 67.24 119.694C48.9951 117.618 29.93 110.455 29.93 78.6888C29.93 69.6572 33.1075 62.1827 38.3351 56.3693C37.5151 54.2932 34.6449 45.7806 39.1549 34.3614C39.1549 34.3614 46.0225 32.1814 61.7049 42.874C68.2651 41.0053 75.2351 40.0711 82.2051 40.0711C89.1751 40.0711 96.1451 41.0053 102.705 42.874C118.387 32.0776 125.255 34.3614 125.255 34.3614C129.765 45.7806 126.895 54.2932 126.075 56.3693C131.303 62.1827 134.48 69.5534 134.48 78.6888C134.48 110.559 115.313 117.618 97.0675 119.694C100.04 122.289 102.603 127.272 102.603 135.058C102.603 146.166 102.5 155.093 102.5 157.897C102.5 160.077 104.037 162.672 108.137 161.841C140.527 150.837 164 119.694 164 83.0488C164 37.1643 127.305 0 82 0Z" fill="#1B1F23"/>
</g>
<path d="M392.789 11H402.439C402.439 15.3465 402.439 19.6767 402.439 24.0233C418.699 24.0233 434.96 24.0558 451.221 23.9744C453.966 24.0884 456.988 23.893 459.375 25.5372C461.049 27.9465 460.854 31.007 460.967 33.7744C460.886 62.0349 460.919 90.2791 460.935 118.523C460.854 123.26 461.374 128.095 460.383 132.767C459.733 136.153 455.672 136.235 452.959 136.349C436.13 136.398 419.284 136.316 402.439 136.349C402.439 141.233 402.439 146.116 402.439 151H392.351C367.594 146.491 342.789 142.323 318 137.977C318 99.9977 318 62.0186 318 24.0395C342.935 19.693 367.87 15.4116 392.789 11Z" fill="#207245"/>
<path d="M402.439 28.907C420.308 28.907 438.176 28.907 456.045 28.907C456.045 63.093 456.045 97.2791 456.045 131.465C438.176 131.465 420.308 131.465 402.439 131.465C402.439 128.209 402.439 124.953 402.439 121.698C406.776 121.698 411.097 121.698 415.434 121.698C415.434 117.905 415.434 114.095 415.434 110.302C411.097 110.302 406.776 110.302 402.439 110.302C402.439 108.137 402.439 105.956 402.439 103.791C406.776 103.791 411.097 103.791 415.434 103.791C415.434 99.9977 415.434 96.1884 415.434 92.3953C411.097 92.3953 406.776 92.3953 402.439 92.3953C402.439 90.2302 402.439 88.0488 402.439 85.8837C406.776 85.8837 411.097 85.8837 415.434 85.8837C415.434 82.0907 415.434 78.2814 415.434 74.4884C411.097 74.4884 406.776 74.4884 402.439 74.4884C402.439 72.3233 402.439 70.1419 402.439 67.9767C406.776 67.9767 411.097 67.9767 415.434 67.9767C415.434 64.1837 415.434 60.3744 415.434 56.5814C411.097 56.5814 406.776 56.5814 402.439 56.5814C402.439 54.4163 402.439 52.2349 402.439 50.0698C406.776 50.0698 411.097 50.0698 415.434 50.0698C415.434 46.2767 415.434 42.4674 415.434 38.6744C411.097 38.6744 406.776 38.6744 402.439 38.6744C402.439 35.4186 402.439 32.1628 402.439 28.907V28.907Z" fill="white"/>
<path d="M421.932 38.6744C429.518 38.6744 437.088 38.6744 444.674 38.6744C444.674 42.4674 444.674 46.2767 444.674 50.0698C437.088 50.0698 429.518 50.0698 421.932 50.0698C421.932 46.2767 421.932 42.4674 421.932 38.6744V38.6744Z" fill="#207245"/>
<path d="M366.116 53.9279C369.787 53.6674 373.475 53.4395 377.162 53.2605C372.825 62.1651 368.472 71.0698 364.053 79.9419C368.52 89.0581 373.085 98.1093 377.568 107.226C373.653 106.998 369.755 106.753 365.84 106.477C363.078 99.6884 359.716 93.1279 357.734 86.0302C355.525 92.6395 352.373 98.8744 349.839 105.353C346.282 105.305 342.724 105.158 339.167 105.012C343.341 96.8233 347.37 88.5698 351.675 80.4302C348.02 72.0465 344.007 63.8256 340.239 55.4907C343.812 55.2791 347.386 55.0674 350.96 54.8721C353.38 61.2372 356.028 67.5209 358.026 74.0488C360.171 67.1302 363.371 60.6186 366.116 53.9279V53.9279Z" fill="white"/>
<path d="M421.932 56.5814C429.518 56.5814 437.088 56.5814 444.674 56.5814C444.674 60.3744 444.674 64.1837 444.674 67.9767C437.088 67.9767 429.518 67.9767 421.932 67.9767C421.932 64.1837 421.932 60.3744 421.932 56.5814V56.5814Z" fill="#207245"/>
<path d="M421.932 74.4884C429.518 74.4884 437.088 74.4884 444.674 74.4884C444.674 78.2814 444.674 82.0907 444.674 85.8837C437.088 85.8837 429.518 85.8837 421.932 85.8837C421.932 82.0907 421.932 78.2814 421.932 74.4884V74.4884Z" fill="#207245"/>
<path d="M421.932 92.3954C429.518 92.3954 437.088 92.3954 444.674 92.3954C444.674 96.1884 444.674 99.9977 444.674 103.791C437.088 103.791 429.518 103.791 421.932 103.791C421.932 99.9977 421.932 96.1884 421.932 92.3954V92.3954Z" fill="#207245"/>
<path d="M421.932 110.302C429.518 110.302 437.088 110.302 444.674 110.302C444.674 114.095 444.674 117.905 444.674 121.698C437.088 121.698 429.518 121.698 421.932 121.698C421.932 117.905 421.932 114.095 421.932 110.302V110.302Z" fill="#207245"/>
<g filter="url(#filter0_d)">
<path d="M181.001 107.004L246.581 107.002L222.677 81.0024L276.612 81.0004" stroke="white" stroke-width="6" stroke-linejoin="round"/>
</g>
<path d="M288.085 80.5L271.449 93.058L271.448 67.9432L288.085 80.5Z" fill="white"/>
<defs>
<filter id="filter0_d" x="177" y="78.0004" width="103.612" height="40.0034" filterUnits="userSpaceOnUse" color-interpolation-filters="sRGB">
<feFlood flood-opacity="0" result="BackgroundImageFix"/>
<feColorMatrix in="SourceAlpha" type="matrix" values="0 0 0 0 0 0 0 0 0 0 0 0 0 0 0 0 0 0 127 0"/>
<feOffset dy="4"/>
<feGaussianBlur stdDeviation="2"/>
<feColorMatrix type="matrix" values="0 0 0 0 0 0 0 0 0 0 0 0 0 0 0 0 0 0 0.25 0"/>
<feBlend mode="normal" in2="BackgroundImageFix" result="effect1_dropShadow"/>
<feBlend mode="normal" in="SourceGraphic" in2="effect1_dropShadow" result="shape"/>
</filter>
<clipPath id="clip0">
<rect width="164" height="162" fill="white"/>
</clipPath>
</defs>
</svg>
